<svg width="120" height="120" viewBox="0 0 120 120" fill="none" xmlns="http://www.w3.org/2000/svg">
<g id="deal 1" clip-path="url(#clip0_279_16576)">
<path id="Vector" d="M119.883 86.5337L106.758 52.24C106.594 51.8121 106.27 51.4652 105.854 51.273C105.438 51.0808 104.963 51.0586 104.531 51.211L90.7032 56.1446C90.4811 56.2243 90.2772 56.3477 90.1037 56.5076C89.9302 56.6675 89.7906 56.8606 89.6931 57.0755C89.5956 57.2903 89.5423 57.5226 89.5362 57.7584C89.5302 57.9943 89.5715 58.229 89.6578 58.4485L90.8602 61.4954L81.4242 65.9767L65.9367 63.0681C64.4284 62.7861 62.8781 62.8183 61.3827 63.1627C59.8874 63.5071 58.4792 64.1563 57.2461 65.0696L54.4782 67.1228L52.6453 65.8032C51.262 64.8126 49.6712 64.1501 47.9936 63.8658C46.3161 63.5816 44.5958 63.6831 42.9633 64.1626L37.0196 65.9321L29.2336 61.2775L30.3516 58.4509C30.4379 58.2313 30.4793 57.9966 30.4732 57.7608C30.4672 57.5249 30.4138 57.2927 30.3163 57.0778C30.2188 56.8629 30.0792 56.6698 29.9057 56.51C29.7322 56.3501 29.5284 56.2266 29.3063 56.147L15.4688 51.211C15.0362 51.0571 14.5605 51.0786 14.1435 51.2709C13.7266 51.4632 13.4014 51.811 13.2375 52.24L0.117217 86.5337C-0.0454628 86.956 -0.038763 87.4248 0.135918 87.8423C0.310599 88.2598 0.639765 88.5937 1.05472 88.7743L14.1797 94.4298C14.3959 94.5232 14.6287 94.5722 14.8642 94.5739C15.0997 94.5756 15.3332 94.5299 15.5507 94.4396C15.7682 94.3493 15.9654 94.2163 16.1305 94.0483C16.2956 93.8803 16.4252 93.6809 16.5117 93.4618L17.8336 90.1173L28.7133 96.2486C27.9802 97.313 27.6425 98.6003 27.759 99.8875C27.8754 101.175 28.4386 102.381 29.3508 103.296C29.864 103.81 30.4735 104.217 31.1444 104.494C31.8153 104.771 32.5343 104.913 33.2602 104.911H33.3985C33.5215 106.286 34.1553 107.565 35.1748 108.496C36.1943 109.427 37.5256 109.943 38.9063 109.941H39.0492C39.1606 111.233 39.7251 112.444 40.643 113.36C41.1561 113.874 41.7657 114.281 42.4366 114.558C43.1075 114.835 43.8265 114.977 44.5524 114.975H44.6907C44.7836 116.023 45.1736 117.022 45.8147 117.856C46.4558 118.689 47.3215 119.323 48.31 119.681C49.2986 120.04 50.369 120.11 51.3956 119.881C52.4221 119.653 53.3623 119.136 54.1055 118.392L56.1938 116.306L59.0203 118.416C60.2178 119.308 61.6973 119.738 63.1866 119.626C64.6758 119.514 66.0745 118.868 67.125 117.806L67.3242 117.605C68.2116 116.699 68.8005 115.543 69.0117 114.293C70.0692 114.592 71.1872 114.603 72.2507 114.327C73.3142 114.051 74.285 113.496 75.0633 112.72L75.2086 112.575C76.1948 111.591 76.8179 110.301 76.9758 108.917C78.0415 109.234 79.1733 109.257 80.2508 108.982C81.3283 108.708 82.3114 108.146 83.0953 107.358L83.1938 107.259C84.1553 106.307 84.7721 105.061 84.9469 103.718C85.8957 103.944 86.8846 103.943 87.8327 103.714C88.7808 103.484 89.6611 103.034 90.4016 102.399C91.1422 101.764 91.7218 100.963 92.0932 100.061C92.4646 99.1588 92.6171 98.1817 92.5383 97.2095C92.5076 96.8325 92.4425 96.459 92.3438 96.0939L102.56 91.0923L103.498 93.4548C103.584 93.6743 103.713 93.8741 103.878 94.0425C104.043 94.2108 104.24 94.3441 104.458 94.4345C104.676 94.5249 104.909 94.5704 105.145 94.5684C105.381 94.5664 105.614 94.5168 105.83 94.4228L118.955 88.7673C119.366 88.585 119.692 88.2515 119.865 87.8359C120.038 87.4202 120.044 86.954 119.883 86.5337ZM13.9055 90.4853L4.00315 86.215L15.9024 55.1017L18.8203 56.14L13.1953 72.129C13.0399 72.5691 13.0657 73.0529 13.267 73.474C13.4684 73.8951 13.8287 74.2189 14.2688 74.3743C14.7089 74.5297 15.1927 74.5039 15.6138 74.3026C16.0348 74.1013 16.3587 73.741 16.5141 73.3009L22.125 57.3282L26.4024 58.854L13.9055 90.4853ZM34.6875 100.809C34.308 101.174 33.8009 101.375 33.2748 101.37C32.7487 101.365 32.2454 101.155 31.8726 100.784C31.4998 100.412 31.2872 99.91 31.2802 99.3839C31.2732 98.8578 31.4724 98.3499 31.8352 97.9689L35.5852 94.2189C35.8672 93.9379 36.2261 93.7467 36.6166 93.6694C37.0071 93.5922 37.4118 93.6323 37.7796 93.7847C38.1473 93.9371 38.4617 94.195 38.6831 94.5259C38.9045 94.8568 39.0229 95.2458 39.0235 95.6439C39.0244 95.9083 38.9726 96.1703 38.8712 96.4146C38.7698 96.6588 38.6208 96.8805 38.4328 97.0665L34.6875 100.809ZM40.6453 105.534C40.5399 105.638 40.4461 105.748 40.3524 105.858L40.3336 105.837C40.1484 106.031 39.9262 106.186 39.6803 106.293C39.4343 106.4 39.1694 106.456 38.9012 106.459C38.633 106.463 38.3669 106.412 38.1185 106.311C37.8701 106.21 37.6444 106.06 37.4547 105.871C37.2649 105.681 37.115 105.455 37.0136 105.207C36.9123 104.959 36.8616 104.693 36.8645 104.424C36.8674 104.156 36.9239 103.891 37.0306 103.645C37.1373 103.399 37.2922 103.177 37.486 102.992L40.9266 99.5532C41.0297 99.4501 41.1282 99.3423 41.2219 99.2321L41.2383 99.2485C41.6185 98.8849 42.1259 98.6845 42.6519 98.6902C43.178 98.6959 43.6809 98.9073 44.053 99.2792C44.4252 99.651 44.637 100.154 44.6432 100.68C44.6493 101.206 44.4493 101.713 44.086 102.094L40.6453 105.534ZM45.9703 110.859C45.5872 111.204 45.0868 111.388 44.572 111.374C44.0572 111.36 43.5673 111.15 43.2029 110.786C42.8384 110.422 42.6273 109.933 42.6128 109.418C42.5983 108.903 42.7816 108.403 43.125 108.019L46.875 104.269C47.0569 104.063 47.2791 103.896 47.5278 103.779C47.7766 103.662 48.0466 103.598 48.3213 103.589C48.596 103.581 48.8696 103.628 49.1251 103.729C49.3807 103.831 49.6128 103.983 49.8072 104.177C50.0017 104.371 50.1542 104.603 50.2556 104.859C50.3569 105.114 50.4049 105.388 50.3966 105.663C50.3882 105.937 50.3237 106.207 50.207 106.456C50.0903 106.705 49.9239 106.927 49.718 107.109L45.9703 110.859ZM55.3641 112.139L51.6141 115.889C51.2339 116.253 50.7265 116.453 50.2005 116.448C49.6744 116.442 49.1715 116.23 48.7994 115.859C48.4272 115.487 48.2154 114.984 48.2092 114.458C48.2031 113.932 48.4031 113.424 48.7664 113.044L52.2071 109.606C52.3102 109.502 52.4086 109.395 52.5024 109.284L52.5188 109.301C52.8989 108.937 53.4063 108.737 53.9324 108.743C54.4584 108.748 54.9614 108.96 55.3335 109.332C55.7057 109.703 55.9175 110.206 55.9236 110.732C55.9298 111.258 55.7298 111.766 55.3664 112.146L55.3641 112.139ZM88.261 99.5767C87.7938 100.049 87.1657 100.328 86.502 100.358C85.8382 100.388 85.1876 100.167 84.6797 99.7384L83.3086 98.597C83.2129 98.4578 83.0977 98.3331 82.9664 98.2267L79.8047 95.6861C79.4403 95.4122 78.9838 95.2907 78.5315 95.347C78.0792 95.4033 77.6665 95.6332 77.3804 95.988C77.0943 96.3428 76.9572 96.7949 76.998 97.2488C77.0389 97.7028 77.2544 98.1231 77.5992 98.4212L80.3274 100.622C80.4031 100.727 80.4895 100.823 80.5852 100.91C80.8562 101.15 81.0752 101.443 81.2288 101.771C81.3824 102.099 81.4673 102.454 81.4783 102.816C81.4893 103.178 81.4261 103.538 81.2927 103.875C81.1592 104.211 80.9583 104.517 80.7024 104.773L80.6039 104.871C80.1594 105.318 79.5704 105.591 78.9424 105.643C78.3145 105.694 77.6888 105.52 77.1774 105.152L74.461 103.207L74.4328 103.186L73.4063 102.452C73.0271 102.181 72.5557 102.072 72.0957 102.148C71.6357 102.224 71.2249 102.48 70.9535 102.859C70.6822 103.238 70.5726 103.71 70.6489 104.17C70.7251 104.63 70.981 105.04 71.3602 105.312L72.4055 106.059C72.7158 106.286 72.9734 106.576 73.1605 106.911C73.3477 107.246 73.4599 107.618 73.4895 108.001C73.5192 108.384 73.4655 108.768 73.3321 109.128C73.1988 109.488 72.989 109.815 72.7172 110.086L72.5719 110.231C72.0937 110.709 71.4515 110.987 70.7759 111.008C70.1002 111.029 69.4418 110.793 68.9344 110.346L66.0047 107.768C65.8364 107.594 65.6339 107.456 65.4098 107.363C65.1857 107.271 64.9449 107.226 64.7025 107.231C64.4601 107.236 64.2214 107.291 64.0014 107.393C63.7814 107.495 63.5848 107.641 63.4239 107.822C63.2631 108.004 63.1416 108.216 63.0669 108.447C62.9922 108.678 62.9661 108.921 62.9901 109.162C63.0142 109.404 63.0878 109.637 63.2065 109.849C63.3252 110.06 63.4863 110.245 63.6797 110.391L64.6758 111.272C64.9472 111.511 65.167 111.802 65.3219 112.129C65.4767 112.455 65.5632 112.81 65.5761 113.171C65.5891 113.532 65.5282 113.892 65.3971 114.229C65.2661 114.566 65.0677 114.872 64.8141 115.13L64.6149 115.331C64.1625 115.788 63.5603 116.067 62.919 116.115C62.2778 116.163 61.6406 115.978 61.125 115.594L58.5938 113.705C59.1287 112.869 59.429 111.905 59.4631 110.914C59.4972 109.922 59.2639 108.94 58.7877 108.069C58.3114 107.199 57.6097 106.473 56.7562 105.967C55.9027 105.461 54.9289 105.195 53.9367 105.195H53.7985C53.6749 103.82 53.0415 102.541 52.0226 101.61C51.0038 100.679 49.6733 100.162 48.293 100.163H48.15C48.0225 98.7677 47.3685 97.4738 46.321 96.5438C45.2735 95.6139 43.9112 95.1178 42.511 95.1564C42.4006 93.8642 41.835 92.6531 40.9149 91.7392C39.8774 90.7035 38.4714 90.1219 37.0055 90.1219C35.5396 90.1219 34.1336 90.7035 33.0961 91.7392L31.2047 93.6282L19.1344 86.8314L27.9188 64.6032L35.8735 69.3587C36.0828 69.484 36.316 69.5643 36.5581 69.5946C36.8002 69.6249 37.046 69.6044 37.2797 69.5345L43.9641 67.5446C45.0809 67.2156 46.258 67.1453 47.406 67.339C48.554 67.5327 49.6428 67.9854 50.5899 68.6626L51.5133 69.3282L42.1172 76.3009C41.42 76.8185 40.853 77.4913 40.4609 78.2661C40.0689 79.0408 39.8627 79.8963 39.8586 80.7646C39.8545 81.6329 40.0526 82.4902 40.4374 83.2686C40.8221 84.047 41.3828 84.7252 42.075 85.2493C43.3807 86.2296 44.9522 86.7924 46.5833 86.8639C48.2145 86.9354 49.8292 86.5123 51.2157 85.6501L58.5938 81.0071C59.4516 82.7181 61.0547 85.0431 63.8391 86.4751C67.0664 88.1345 70.9899 88.1767 75.5133 86.6017L87.9352 95.5478C88.2473 95.7731 88.5068 96.0635 88.6958 96.399C88.8847 96.7344 88.9986 97.1068 89.0296 97.4905C89.0606 97.8743 89.0079 98.2602 88.8752 98.6215C88.7425 98.9829 88.5329 99.3112 88.261 99.5837V99.5767ZM90.5203 93.0704L76.8118 83.2032C76.5738 83.0324 76.297 82.9236 76.0065 82.8868C75.7159 82.85 75.4207 82.8862 75.1477 82.9923C71.2336 84.511 67.9828 84.6329 65.4797 83.365C62.1657 81.6798 61.1508 77.9954 61.1414 77.9743C61.073 77.7062 60.9422 77.4579 60.7596 77.2499C60.5771 77.0418 60.3481 76.8798 60.0911 76.777C59.8341 76.6742 59.5565 76.6336 59.2808 76.6583C59.0051 76.6831 58.7392 76.7727 58.5047 76.9196L49.3453 82.6642C48.5628 83.1505 47.6513 83.3884 46.7309 83.3465C45.8105 83.3047 44.9243 82.9851 44.1891 82.4298C43.932 82.2356 43.7238 81.9841 43.5809 81.6954C43.438 81.4066 43.3644 81.0885 43.366 80.7663C43.3676 80.4441 43.4443 80.1268 43.59 79.8394C43.7358 79.5521 43.9465 79.3027 44.2055 79.111L59.3321 67.8845C60.1758 67.2598 61.1394 66.8159 62.1625 66.5804C63.1855 66.3449 64.2462 66.3229 65.2782 66.5157L81.3282 69.5298C81.6931 69.5998 82.0708 69.5513 82.4063 69.3915L92.1469 64.765L101.257 87.8181L90.5203 93.0704ZM106.095 90.4782L93.5907 58.8376L97.8703 57.3118L103.479 73.2845C103.634 73.7246 103.958 74.0849 104.379 74.2862C104.8 74.4875 105.284 74.5133 105.724 74.3579C106.164 74.2025 106.525 73.8787 106.726 73.4576C106.927 73.0365 106.953 72.5527 106.798 72.1126L101.173 56.1235L104.091 55.0853L115.99 86.1985L106.095 90.4782Z" fill="url(#paint0_linear_279_16576)"/>
<path id="Vector_2" d="M60 55.0781C65.4467 55.0781 70.7711 53.463 75.2999 50.437C79.8287 47.4109 83.3584 43.1099 85.4428 38.0778C87.5271 33.0457 88.0725 27.5085 87.0099 22.1665C85.9473 16.8244 83.3245 11.9174 79.4731 8.06602C75.6217 4.21461 70.7147 1.59177 65.3726 0.529168C60.0306 -0.533433 54.4934 0.0119323 49.4613 2.0963C44.4292 4.18067 40.1281 7.71042 37.1021 12.2392C34.0761 16.768 32.4609 22.0924 32.4609 27.5391C32.469 34.8404 35.373 41.8404 40.5358 47.0032C45.6987 52.1661 52.6987 55.0701 60 55.0781ZM60 3.51564C64.7514 3.51564 69.3961 4.92459 73.3467 7.56432C77.2973 10.204 80.3765 13.956 82.1948 18.3457C84.013 22.7354 84.4888 27.5657 83.5618 32.2258C82.6349 36.8859 80.3469 41.1665 76.9871 44.5262C73.6274 47.8859 69.3468 50.174 64.6867 51.1009C60.0267 52.0279 55.1963 51.5521 50.8066 49.7338C46.4169 47.9156 42.665 44.8364 40.0252 40.8858C37.3855 36.9351 35.9766 32.2905 35.9766 27.5391C35.9834 21.1698 38.5166 15.0633 43.0204 10.5595C47.5242 6.05569 53.6307 3.52246 60 3.51564Z" fill="url(#paint1_linear_279_16576)"/>
<path id="Vector_3" d="M60 48.0469C64.0561 48.0469 68.021 46.8441 71.3935 44.5907C74.766 42.3373 77.3946 39.1344 78.9467 35.3871C80.4989 31.6398 80.9051 27.5163 80.1138 23.5382C79.3225 19.5601 77.3693 15.9059 74.5012 13.0379C71.6331 10.1698 67.979 8.21661 64.0009 7.42531C60.0228 6.63401 55.8993 7.04014 52.152 8.59232C48.4047 10.1445 45.2018 12.773 42.9484 16.1455C40.695 19.518 39.4922 23.483 39.4922 27.5391C39.4984 32.9762 41.661 38.1888 45.5056 42.0334C49.3503 45.8781 54.5629 48.0407 60 48.0469ZM60 10.5469C63.3607 10.5469 66.646 11.5435 69.4404 13.4106C72.2347 15.2777 74.4126 17.9315 75.6987 21.0364C76.9848 24.1414 77.3213 27.5579 76.6657 30.8541C76.01 34.1502 74.3917 37.178 72.0153 39.5544C69.6389 41.9308 66.6112 43.5491 63.315 44.2048C60.0188 44.8604 56.6023 44.5239 53.4974 43.2378C50.3925 41.9517 47.7386 39.7738 45.8715 36.9794C44.0044 34.1851 43.0078 30.8998 43.0078 27.5391C43.0128 23.034 44.8046 18.7148 47.9902 15.5293C51.1758 12.3437 55.4949 10.5518 60 10.5469Z" fill="url(#paint2_linear_279_16576)"/>
<path id="Vector_4" d="M95.3766 27.5391C95.3766 27.7699 95.4221 27.9985 95.5104 28.2117C95.5987 28.425 95.7282 28.6188 95.8914 28.782C96.0547 28.9453 96.2484 29.0747 96.4617 29.1631C96.675 29.2514 96.9036 29.2969 97.1344 29.2969H106.875C107.341 29.2969 107.788 29.1117 108.118 28.782C108.448 28.4524 108.633 28.0053 108.633 27.5391C108.633 27.0729 108.448 26.6258 108.118 26.2961C107.788 25.9664 107.341 25.7813 106.875 25.7812H97.1344C96.6682 25.7812 96.2211 25.9664 95.8914 26.2961C95.5618 26.6258 95.3766 27.0729 95.3766 27.5391Z" fill="url(#paint3_linear_279_16576)"/>
<path id="Vector_5" d="M93.4828 19.5257C93.7952 19.5281 94.1026 19.4472 94.3734 19.2913L101.677 14.9999C102.081 14.764 102.374 14.3773 102.493 13.9248C102.612 13.4723 102.546 12.9911 102.31 12.587C102.075 12.183 101.688 11.8892 101.235 11.7703C100.783 11.6514 100.302 11.7172 99.8976 11.9531L92.5921 16.2515C92.2556 16.4452 91.9926 16.7449 91.8444 17.1038C91.6961 17.4628 91.6708 17.8607 91.7726 18.2354C91.8743 18.6102 92.0973 18.9408 92.4066 19.1755C92.716 19.4101 93.0944 19.5358 93.4828 19.5327V19.5257Z" fill="url(#paint4_linear_279_16576)"/>
<path id="Vector_6" d="M92.5922 38.8265L99.8977 43.1249C100.098 43.2417 100.319 43.318 100.548 43.3493C100.778 43.3807 101.011 43.3665 101.235 43.3077C101.459 43.2488 101.67 43.1464 101.854 43.0062C102.039 42.8661 102.194 42.691 102.311 42.4909C102.427 42.2909 102.504 42.0698 102.535 41.8402C102.566 41.6107 102.552 41.3773 102.493 41.1532C102.434 40.9291 102.332 40.7189 102.192 40.5344C102.052 40.3499 101.877 40.1949 101.677 40.0781L94.3734 35.789C94.1743 35.6677 93.953 35.5873 93.7225 35.5523C93.492 35.5174 93.2568 35.5287 93.0307 35.5855C92.8046 35.6423 92.592 35.7435 92.4054 35.8833C92.2188 36.0231 92.0618 36.1985 91.9437 36.3996C91.8255 36.6006 91.7486 36.8231 91.7172 37.0541C91.6859 37.2851 91.7008 37.5201 91.7612 37.7453C91.8216 37.9705 91.9261 38.1815 92.0688 38.3659C92.2114 38.5503 92.3894 38.7045 92.5922 38.8195V38.8265Z" fill="url(#paint5_linear_279_16576)"/>
<path id="Vector_7" d="M13.125 29.2969H22.8656C23.3318 29.2969 23.7789 29.1117 24.1086 28.782C24.4382 28.4524 24.6234 28.0053 24.6234 27.5391C24.6234 27.0729 24.4382 26.6258 24.1086 26.2961C23.7789 25.9664 23.3318 25.7813 22.8656 25.7812H13.125C12.6588 25.7813 12.2117 25.9664 11.882 26.2961C11.5524 26.6258 11.3672 27.0729 11.3672 27.5391C11.3672 28.0053 11.5524 28.4524 11.882 28.782C12.2117 29.1117 12.6588 29.2969 13.125 29.2969Z" fill="url(#paint6_linear_279_16576)"/>
<path id="Vector_8" d="M18.3235 14.9999L25.6266 19.289C25.8257 19.4103 26.047 19.4907 26.2775 19.5257C26.5081 19.5606 26.7432 19.5493 26.9693 19.4925C27.1955 19.4357 27.408 19.3344 27.5947 19.1947C27.7813 19.0549 27.9382 18.8794 28.0564 18.6784C28.1745 18.4774 28.2515 18.2549 28.2828 18.0239C28.3142 17.7928 28.2992 17.5579 28.2388 17.3327C28.1785 17.1075 28.0739 16.8965 27.9313 16.7121C27.7886 16.5277 27.6107 16.3735 27.4079 16.2585L20.1024 11.953C19.9023 11.8362 19.6812 11.76 19.4517 11.7286C19.2222 11.6973 18.9887 11.7114 18.7646 11.7703C18.3121 11.8892 17.9254 12.183 17.6895 12.587C17.4536 12.9911 17.3879 13.4723 17.5068 13.9248C17.6257 14.3773 17.9194 14.764 18.3235 14.9999Z" fill="url(#paint7_linear_279_16576)"/>
<path id="Vector_9" d="M25.6266 35.7961L18.3235 40.0781C17.9194 40.314 17.6257 40.7008 17.5068 41.1533C17.3879 41.6058 17.4536 42.087 17.6895 42.491C17.9254 42.8951 18.3121 43.1889 18.7646 43.3078C19.2172 43.4267 19.6984 43.3609 20.1024 43.125L27.4079 38.8336C27.6107 38.7186 27.7886 38.5644 27.9313 38.38C28.0739 38.1956 28.1785 37.9847 28.2388 37.7595C28.2992 37.5343 28.3142 37.2993 28.2828 37.0683C28.2515 36.8372 28.1745 36.6147 28.0564 36.4137C27.9382 36.2127 27.7813 36.0372 27.5947 35.8975C27.408 35.7577 27.1955 35.6565 26.9693 35.5996C26.7432 35.5428 26.5081 35.5315 26.2775 35.5665C26.047 35.6014 25.8257 35.6819 25.6266 35.8031V35.7961Z" fill="url(#paint8_linear_279_16576)"/>
<path id="Vector_10" d="M56.0554 35.1843C56.2202 35.3615 56.4197 35.5028 56.6415 35.5994C56.8633 35.6961 57.1026 35.7459 57.3445 35.7459C57.5864 35.7459 57.8258 35.6961 58.0476 35.5994C58.2694 35.5028 58.4688 35.3615 58.6336 35.1843L70.6664 22.2937C70.824 22.1244 70.9467 21.9257 71.0275 21.709C71.1083 21.4923 71.1456 21.2618 71.1374 21.0307C71.1291 20.7996 71.0754 20.5723 70.9793 20.362C70.8832 20.1516 70.7466 19.9622 70.5773 19.8046C70.408 19.647 70.2094 19.5243 69.9927 19.4435C69.776 19.3627 69.5455 19.3254 69.3143 19.3336C69.0832 19.3419 68.856 19.3956 68.6456 19.4917C68.4352 19.5878 68.2459 19.7244 68.0883 19.8937L57.3422 31.4062L51.9094 25.5866C51.5911 25.2448 51.1501 25.0433 50.6833 25.0266C50.2165 25.0099 49.7622 25.1793 49.4203 25.4976C49.0784 25.8158 48.877 26.2569 48.8603 26.7237C48.8436 27.1905 49.013 27.6448 49.3312 27.9866L56.0554 35.1843Z" fill="url(#paint9_linear_279_16576)"/>
</g>
<defs>
<linearGradient id="paint0_linear_279_16576" x1="59.9995" y1="51.1094" x2="59.9995" y2="120.013" gradientUnits="userSpaceOnUse">
<stop stop-color="#E6BE31"/>
<stop offset="1" stop-color="#EED14E"/>
</linearGradient>
<linearGradient id="paint1_linear_279_16576" x1="60" y1="0" x2="60" y2="55.0781" gradientUnits="userSpaceOnUse">
<stop stop-color="#E6BE31"/>
<stop offset="1" stop-color="#EED14E"/>
</linearGradient>
<linearGradient id="paint2_linear_279_16576" x1="60" y1="7.03125" x2="60" y2="48.0469" gradientUnits="userSpaceOnUse">
<stop stop-color="#E6BE31"/>
<stop offset="1" stop-color="#EED14E"/>
</linearGradient>
<linearGradient id="paint3_linear_279_16576" x1="102.005" y1="25.7812" x2="102.005" y2="29.2969" gradientUnits="userSpaceOnUse">
<stop stop-color="#E6BE31"/>
<stop offset="1" stop-color="#EED14E"/>
</linearGradient>
<linearGradient id="paint4_linear_279_16576" x1="97.1312" y1="11.7124" x2="97.1312" y2="19.5328" gradientUnits="userSpaceOnUse">
<stop stop-color="#E6BE31"/>
<stop offset="1" stop-color="#EED14E"/>
</linearGradient>
<linearGradient id="paint5_linear_279_16576" x1="97.1262" y1="35.5325" x2="97.1262" y2="43.3656" gradientUnits="userSpaceOnUse">
<stop stop-color="#E6BE31"/>
<stop offset="1" stop-color="#EED14E"/>
</linearGradient>
<linearGradient id="paint6_linear_279_16576" x1="17.9953" y1="25.7812" x2="17.9953" y2="29.2969" gradientUnits="userSpaceOnUse">
<stop stop-color="#E6BE31"/>
<stop offset="1" stop-color="#EED14E"/>
</linearGradient>
<linearGradient id="paint7_linear_279_16576" x1="22.8738" y1="11.7124" x2="22.8738" y2="19.5455" gradientUnits="userSpaceOnUse">
<stop stop-color="#E6BE31"/>
<stop offset="1" stop-color="#EED14E"/>
</linearGradient>
<linearGradient id="paint8_linear_279_16576" x1="22.8738" y1="35.5466" x2="22.8738" y2="43.3657" gradientUnits="userSpaceOnUse">
<stop stop-color="#E6BE31"/>
<stop offset="1" stop-color="#EED14E"/>
</linearGradient>
<linearGradient id="paint9_linear_279_16576" x1="59.9988" y1="19.3325" x2="59.9988" y2="35.7459" gradientUnits="userSpaceOnUse">
<stop stop-color="#E6BE31"/>
<stop offset="1" stop-color="#EED14E"/>
</linearGradient>
<clipPath id="clip0_279_16576">
<rect width="120" height="120" fill="white"/>
</clipPath>
</defs>
</svg>
