<svg width="120" height="120" viewBox="0 0 120 120" fill="none" xmlns="http://www.w3.org/2000/svg">
<g id="cash-withdrawal 1">
<g id="Cash-Finance-Loan-Money-Income">
<path id="Vector" d="M75 24.375C75 21.7791 74.2302 19.2415 72.788 17.0831C71.3458 14.9248 69.296 13.2425 66.8977 12.2491C64.4994 11.2557 61.8604 10.9958 59.3144 11.5022C56.7684 12.0086 54.4298 13.2587 52.5942 15.0942C50.7587 16.9298 49.5086 19.2684 49.0022 21.8144C48.4958 24.3604 48.7557 26.9994 49.7491 29.3977C50.7425 31.796 52.4248 33.8459 54.5831 35.288C56.7415 36.7302 59.2791 37.5 61.875 37.5C65.3548 37.496 68.6908 36.112 71.1514 33.6514C73.612 31.1908 74.996 27.8548 75 24.375ZM52.5 24.375C52.5 22.5208 53.0498 20.7082 54.08 19.1665C55.1101 17.6248 56.5743 16.4232 58.2873 15.7136C60.0004 15.0041 61.8854 14.8184 63.704 15.1801C65.5226 15.5419 67.193 16.4348 68.5041 17.7459C69.8152 19.057 70.7081 20.7275 71.0699 22.546C71.4316 24.3646 71.2459 26.2496 70.5364 27.9627C69.8268 29.6757 68.6252 31.1399 67.0835 32.17C65.5418 33.2002 63.7292 33.75 61.875 33.75C59.3895 33.747 57.0067 32.7584 55.2492 31.0008C53.4917 29.2433 52.503 26.8605 52.5 24.375Z" fill="url(#paint0_linear_279_16508)"/>
<path id="Vector_2" d="M91.875 3.75H31.875C29.8859 3.75 27.9782 4.54018 26.5717 5.9467C25.1652 7.35322 24.375 9.26088 24.375 11.25C24.375 13.2391 25.1652 15.1468 26.5717 16.5533C27.9782 17.9598 29.8859 18.75 31.875 18.75H35.625V34.8938L27.675 48.6562C24.2576 54.5361 22.8305 61.3623 23.6063 68.1188L26.25 91.9875V97.5H24.375C23.8777 97.5 23.4008 97.6975 23.0492 98.0492C22.6975 98.4008 22.5 98.8777 22.5 99.375V114.375C22.5 114.872 22.6975 115.349 23.0492 115.701C23.4008 116.052 23.8777 116.25 24.375 116.25H58.125C58.6223 116.25 59.0992 116.052 59.4508 115.701C59.8025 115.349 60 114.872 60 114.375V99.375C60 98.8777 59.8025 98.4008 59.4508 98.0492C59.0992 97.6975 58.6223 97.5 58.125 97.5H56.5687L58.9313 93.5625C60.8611 90.3524 61.8788 86.6768 61.875 82.9313V80.4938C61.8785 77.8661 61.3756 75.2624 60.3937 72.825L59.7563 71.25H86.25C86.7473 71.25 87.2242 71.0525 87.5758 70.7008C87.9275 70.3492 88.125 69.8723 88.125 69.375V18.75H91.875C93.8641 18.75 95.7718 17.9598 97.1783 16.5533C98.5848 15.1468 99.375 13.2391 99.375 11.25C99.375 9.26088 98.5848 7.35322 97.1783 5.9467C95.7718 4.54018 93.8641 3.75 91.875 3.75ZM39.375 54.5062C40.6641 54.6667 41.9256 55.001 43.125 55.5V67.5H39.375V54.5062ZM31.875 15C30.8814 14.997 29.9292 14.601 29.2266 13.8984C28.524 13.1958 28.128 12.2436 28.125 11.25C28.1324 10.2577 28.5298 9.30816 29.2315 8.60648C29.9332 7.90481 30.8827 7.50736 31.875 7.5H35.625V15H31.875ZM56.25 112.5H26.25V101.25H56.25V112.5ZM58.125 82.9313C58.1293 85.9978 57.2927 89.0069 55.7062 91.6312L52.7625 96.5438C52.5908 96.8332 52.5001 97.1635 52.5 97.5H30V91.875C30.0031 91.8057 29.9968 91.7363 29.9812 91.6687L27.3187 67.7063C26.6497 61.7412 27.9185 55.7192 30.9375 50.5312L35.625 42.3938V69.375C35.625 69.8723 35.8225 70.3492 36.1742 70.7008C36.5258 71.0525 37.0027 71.25 37.5 71.25H43.125V73.125H46.875V54.375C46.878 53.3814 47.274 52.4292 47.9766 51.7266C48.6792 51.024 49.6314 50.628 50.625 50.625C51.6173 50.6324 52.5668 51.0298 53.2685 51.7315C53.9702 52.4332 54.3676 53.3827 54.375 54.375V67.5C54.3714 67.7377 54.416 67.9738 54.5062 68.1937L56.9062 74.2312C57.7164 76.2195 58.1304 78.3468 58.125 80.4938V82.9313ZM84.375 67.5H71.3812C71.7997 64.2 73.3033 61.1326 75.6555 58.7805C78.0076 56.4283 81.075 54.9247 84.375 54.5062V67.5ZM84.375 50.7188C80.0731 51.1553 76.0537 53.0636 72.9962 56.1212C69.9386 59.1787 68.0303 63.1981 67.5938 67.5H58.275L58.125 67.1438V54.375C58.1281 52.6253 57.5182 50.9297 56.4013 49.5828C55.2844 48.2359 53.731 47.3228 52.011 47.0019C50.2909 46.6811 48.5128 46.9728 46.9854 47.8265C45.4581 48.6802 44.2779 50.0418 43.65 51.675C42.267 51.1947 40.832 50.8801 39.375 50.7375V7.5H84.375V50.7188ZM94.5188 13.8937C94.1732 14.2439 93.7616 14.5219 93.3077 14.7118C92.8539 14.9017 92.3669 14.9997 91.875 15H88.125V7.5H91.875C92.8687 7.50297 93.8207 7.89901 94.5234 8.60163C95.226 9.30425 95.622 10.2564 95.625 11.25C95.6247 11.7419 95.5267 12.2289 95.3368 12.6827C95.1469 13.1366 94.8689 13.5482 94.5188 13.8937Z" fill="url(#paint1_linear_279_16508)"/>
<path id="Vector_3" d="M114.199 64.83C114.048 64.5071 113.808 64.234 113.507 64.0427C113.206 63.8514 112.857 63.7499 112.5 63.75H108.75V30H105V65.625C105 66.1223 105.198 66.5992 105.549 66.9508C105.901 67.3025 106.378 67.5 106.875 67.5H108.497L103.125 73.9463L97.7532 67.5H99.375C99.8723 67.5 100.349 67.3025 100.701 66.9508C101.052 66.5992 101.25 66.1223 101.25 65.625V30H97.5V63.75H93.75C93.3938 63.7501 93.0449 63.8518 92.7443 64.043C92.4437 64.2342 92.2038 64.5072 92.0527 64.8298C91.9016 65.1525 91.8456 65.5115 91.8911 65.8648C91.9367 66.2182 92.082 66.5512 92.31 66.825L101.685 78.075C101.861 78.286 102.081 78.4558 102.33 78.5723C102.579 78.6888 102.85 78.7492 103.125 78.7492C103.4 78.7492 103.671 78.6888 103.92 78.5723C104.169 78.4558 104.389 78.286 104.565 78.075L113.94 66.825C114.168 66.5514 114.314 66.2185 114.36 65.8651C114.405 65.5118 114.35 65.1528 114.199 64.83Z" fill="url(#paint2_linear_279_16508)"/>
<path id="Vector_4" d="M27.9488 38.58C27.7976 38.2571 27.5575 37.984 27.2566 37.7927C26.9558 37.6014 26.6066 37.4999 26.25 37.5H22.5V3.75H18.75V39.375C18.75 39.8723 18.9476 40.3492 19.2992 40.7008C19.6508 41.0525 20.1278 41.25 20.625 41.25H22.2469L16.875 47.6963L11.5032 41.25H13.125C13.6223 41.25 14.0992 41.0525 14.4509 40.7008C14.8025 40.3492 15 39.8723 15 39.375V3.75H11.25V37.5H7.50003C7.14375 37.5001 6.79489 37.6018 6.49429 37.793C6.19369 37.9842 5.95379 38.2572 5.8027 38.5798C5.6516 38.9025 5.59556 39.2615 5.64114 39.6148C5.68671 39.9682 5.83201 40.3012 6.06003 40.575L15.435 51.825C15.611 52.036 15.8312 52.2058 16.08 52.3223C16.3289 52.4388 16.6003 52.4992 16.875 52.4992C17.1498 52.4992 17.4212 52.4388 17.67 52.3223C17.9189 52.2058 18.1391 52.036 18.315 51.825L27.69 40.575C27.9182 40.3014 28.0638 39.9685 28.1096 39.6151C28.1554 39.2618 28.0996 38.9028 27.9488 38.58Z" fill="url(#paint3_linear_279_16508)"/>
</g>
</g>
<defs>
<linearGradient id="paint0_linear_279_16508" x1="61.875" y1="11.25" x2="61.875" y2="37.5" gradientUnits="userSpaceOnUse">
<stop stop-color="#E6BE31"/>
<stop offset="1" stop-color="#EED14E"/>
</linearGradient>
<linearGradient id="paint1_linear_279_16508" x1="60.9375" y1="3.75" x2="60.9375" y2="116.25" gradientUnits="userSpaceOnUse">
<stop stop-color="#E6BE31"/>
<stop offset="1" stop-color="#EED14E"/>
</linearGradient>
<linearGradient id="paint2_linear_279_16508" x1="103.125" y1="30" x2="103.125" y2="78.7492" gradientUnits="userSpaceOnUse">
<stop stop-color="#E6BE31"/>
<stop offset="1" stop-color="#EED14E"/>
</linearGradient>
<linearGradient id="paint3_linear_279_16508" x1="16.8755" y1="3.75" x2="16.8755" y2="52.4992" gradientUnits="userSpaceOnUse">
<stop stop-color="#E6BE31"/>
<stop offset="1" stop-color="#EED14E"/>
</linearGradient>
</defs>
</svg>
