<svg width="250" height="80" viewBox="0 0 250 80" fill="none" xmlns="http://www.w3.org/2000/svg">
<g filter="url(#filter0_d_279_17738)">
<path d="M77.5652 27.2004L47.7284 26.4189L44.8868 31.4628L73.3739 32.3863C75.4767 43.0139 71.5979 52.9169 69.3956 56.5399C62.3485 68.5315 49.9307 72.3818 44.6027 72.8081L68.1169 34.9437L43.324 34.0913L40.4113 39.2772L58.8817 40.0586L35.1544 78.2781C45.2705 79.9263 54.8561 76.218 58.3844 74.1578C82.3107 61.3138 81.1409 37.5012 77.5652 27.2004Z" fill="url(#paint0_linear_279_17738)"/>
<path d="M42.6847 0.134209C63.2579 0.929857 73.9423 16.7576 76.7129 24.572L31.7446 23.1512L40.3404 39.2772H34.0889L22.6515 17.3969L66.8383 18.8177C58.9387 7.73549 46.3078 5.39117 40.9798 5.60429C31.773 4.63815 21.6569 10.9323 17.7497 14.2001L31.2473 39.2772H25.1379L11.2851 12.9924C20.6055 1.05773 36.1017 -0.55251 42.6847 0.134209Z" fill="url(#paint1_linear_279_17738)"/>
<path d="M43.3239 44.6759L40.3402 39.3479L30.2526 54.8347L9.22473 15.3364C-1.23236 27.5553 0.463129 44.0603 2.61801 50.7854C8.01705 68.8011 24.522 76.2887 32.0996 77.7806L48.0126 52.4903L44.7447 47.2334L29.5422 71.2449C24.2 69.8241 18.4599 65.3012 16.2577 63.2174C3.18633 49.6345 6.12265 33.1201 9.22473 26.5607L30.2526 65.7038L43.3239 44.6759Z" fill="url(#paint2_linear_279_17738)"/>
</g>
<g filter="url(#filter1_d_279_17738)">
<path d="M220.331 58.893L238.731 30.2582C239.094 29.6775 239.276 29.242 239.276 28.9517C239.276 28.5887 238.858 28.4073 238.023 28.4073H218.97V20.7858H245.427C248.476 20.7858 250 22.3283 250 25.4131C250 27.3003 249.528 28.988 248.585 30.4759L231.11 58.893H220.331Z" fill="url(#paint3_linear_279_17738)"/>
</g>
<g filter="url(#filter2_d_279_17738)">
<path d="M186.572 58.893L204.973 30.2582C205.336 29.6775 205.517 29.242 205.517 28.9517C205.517 28.5887 205.1 28.4073 204.265 28.4073H185.211V20.7858H211.669C214.717 20.7858 216.242 22.3283 216.242 25.4131C216.242 27.3003 215.77 28.988 214.826 30.4759L197.351 58.893H186.572Z" fill="url(#paint4_linear_279_17738)"/>
</g>
<g filter="url(#filter3_d_279_17738)">
<path d="M152.814 58.893L171.214 30.2582C171.577 29.6775 171.759 29.242 171.759 28.9517C171.759 28.5887 171.341 28.4073 170.507 28.4073H151.453V20.7858H177.91C180.959 20.7858 182.483 22.3283 182.483 25.4131C182.483 27.3003 182.011 28.988 181.068 30.4759L163.593 58.893H152.814Z" fill="url(#paint5_linear_279_17738)"/>
</g>
<g filter="url(#filter4_d_279_17738)">
<path d="M123.802 43.2146V48.7674C123.802 49.8562 123.983 50.582 124.346 50.945C124.709 51.3079 125.435 51.4894 126.524 51.4894H135.615C137.103 51.4894 138.174 51.1809 138.827 50.5639C139.48 49.9106 139.807 48.84 139.807 47.352C139.807 45.864 139.48 44.8115 138.827 44.1945C138.21 43.5413 137.212 43.2146 135.833 43.2146H123.802ZM123.802 30.6393V36.1376H135.561C136.903 36.1376 137.865 35.8472 138.446 35.2666C139.027 34.6496 139.317 33.5971 139.317 32.1091C139.317 30.73 139.008 29.7319 138.391 29.115C137.811 28.498 136.849 28.1895 135.506 28.1895H126.252C125.308 28.1895 124.655 28.371 124.292 28.7339C123.965 29.0605 123.802 29.6957 123.802 30.6393ZM143.563 39.5672C145.886 39.8939 147.501 40.783 148.408 42.2347C149.352 43.6864 149.824 45.7188 149.824 48.3319C149.824 51.8523 149.134 54.5016 147.755 56.28C146.376 58.022 143.872 58.893 140.242 58.893H119.773C115.926 58.893 114.003 56.9514 114.003 53.0681V26.6652C114.003 22.7456 115.926 20.7858 119.773 20.7858H139.698C142.964 20.7858 145.341 21.6387 146.829 23.3445C148.354 25.0502 149.116 27.7177 149.116 31.347C149.116 36.065 147.265 38.7325 143.563 39.3495V39.5672Z" fill="url(#paint6_linear_279_17738)"/>
</g>
<g filter="url(#filter5_d_279_17738)">
<path d="M86.6174 58.8929V51.2714H92.2791C95.4002 51.2714 97.6141 50.6 98.9206 49.2572C100.263 47.8781 100.935 45.5916 100.935 42.3979V20.7856H110.734V45.7186C110.734 49.6745 109.572 52.8683 107.25 55.2999C104.963 57.6952 101.806 58.8929 97.7774 58.8929H86.6174Z" fill="url(#paint7_linear_279_17738)"/>
</g>
<defs>
<filter id="filter0_d_279_17738" x="0.408805" y="0" width="79.113" height="79.5756" filterUnits="userSpaceOnUse" color-interpolation-filters="sRGB">
<feFlood flood-opacity="0" result="BackgroundImageFix"/>
<feColorMatrix in="SourceAlpha" type="matrix" values="0 0 0 0 0 0 0 0 0 0 0 0 0 0 0 0 0 0 127 0" result="hardAlpha"/>
<feOffset dx="-0.591195" dy="0.886793"/>
<feComposite in2="hardAlpha" operator="out"/>
<feColorMatrix type="matrix" values="0 0 0 0 0 0 0 0 0 0 0 0 0 0 0 0 0 0 0.4 0"/>
<feBlend mode="normal" in2="BackgroundImageFix" result="effect1_dropShadow_279_17738"/>
<feBlend mode="normal" in="SourceGraphic" in2="effect1_dropShadow_279_17738" result="shape"/>
</filter>
<filter id="filter1_d_279_17738" x="218.674" y="20.7858" width="31.3257" height="38.994" filterUnits="userSpaceOnUse" color-interpolation-filters="sRGB">
<feFlood flood-opacity="0" result="BackgroundImageFix"/>
<feColorMatrix in="SourceAlpha" type="matrix" values="0 0 0 0 0 0 0 0 0 0 0 0 0 0 0 0 0 0 127 0" result="hardAlpha"/>
<feOffset dx="-0.295597" dy="0.886793"/>
<feComposite in2="hardAlpha" operator="out"/>
<feColorMatrix type="matrix" values="0 0 0 0 0 0 0 0 0 0 0 0 0 0 0 0 0 0 0.4 0"/>
<feBlend mode="normal" in2="BackgroundImageFix" result="effect1_dropShadow_279_17738"/>
<feBlend mode="normal" in="SourceGraphic" in2="effect1_dropShadow_279_17738" result="shape"/>
</filter>
<filter id="filter2_d_279_17738" x="184.916" y="20.7858" width="31.3257" height="38.994" filterUnits="userSpaceOnUse" color-interpolation-filters="sRGB">
<feFlood flood-opacity="0" result="BackgroundImageFix"/>
<feColorMatrix in="SourceAlpha" type="matrix" values="0 0 0 0 0 0 0 0 0 0 0 0 0 0 0 0 0 0 127 0" result="hardAlpha"/>
<feOffset dx="-0.295597" dy="0.886793"/>
<feComposite in2="hardAlpha" operator="out"/>
<feColorMatrix type="matrix" values="0 0 0 0 0 0 0 0 0 0 0 0 0 0 0 0 0 0 0.4 0"/>
<feBlend mode="normal" in2="BackgroundImageFix" result="effect1_dropShadow_279_17738"/>
<feBlend mode="normal" in="SourceGraphic" in2="effect1_dropShadow_279_17738" result="shape"/>
</filter>
<filter id="filter3_d_279_17738" x="151.157" y="20.7858" width="31.3257" height="38.994" filterUnits="userSpaceOnUse" color-interpolation-filters="sRGB">
<feFlood flood-opacity="0" result="BackgroundImageFix"/>
<feColorMatrix in="SourceAlpha" type="matrix" values="0 0 0 0 0 0 0 0 0 0 0 0 0 0 0 0 0 0 127 0" result="hardAlpha"/>
<feOffset dx="-0.295597" dy="0.886793"/>
<feComposite in2="hardAlpha" operator="out"/>
<feColorMatrix type="matrix" values="0 0 0 0 0 0 0 0 0 0 0 0 0 0 0 0 0 0 0.4 0"/>
<feBlend mode="normal" in2="BackgroundImageFix" result="effect1_dropShadow_279_17738"/>
<feBlend mode="normal" in="SourceGraphic" in2="effect1_dropShadow_279_17738" result="shape"/>
</filter>
<filter id="filter4_d_279_17738" x="113.707" y="20.7858" width="36.1164" height="38.994" filterUnits="userSpaceOnUse" color-interpolation-filters="sRGB">
<feFlood flood-opacity="0" result="BackgroundImageFix"/>
<feColorMatrix in="SourceAlpha" type="matrix" values="0 0 0 0 0 0 0 0 0 0 0 0 0 0 0 0 0 0 127 0" result="hardAlpha"/>
<feOffset dx="-0.295597" dy="0.886793"/>
<feComposite in2="hardAlpha" operator="out"/>
<feColorMatrix type="matrix" values="0 0 0 0 0 0 0 0 0 0 0 0 0 0 0 0 0 0 0.4 0"/>
<feBlend mode="normal" in2="BackgroundImageFix" result="effect1_dropShadow_279_17738"/>
<feBlend mode="normal" in="SourceGraphic" in2="effect1_dropShadow_279_17738" result="shape"/>
</filter>
<filter id="filter5_d_279_17738" x="86.3218" y="20.7856" width="24.412" height="38.994" filterUnits="userSpaceOnUse" color-interpolation-filters="sRGB">
<feFlood flood-opacity="0" result="BackgroundImageFix"/>
<feColorMatrix in="SourceAlpha" type="matrix" values="0 0 0 0 0 0 0 0 0 0 0 0 0 0 0 0 0 0 127 0" result="hardAlpha"/>
<feOffset dx="-0.295597" dy="0.886793"/>
<feComposite in2="hardAlpha" operator="out"/>
<feColorMatrix type="matrix" values="0 0 0 0 0 0 0 0 0 0 0 0 0 0 0 0 0 0 0.4 0"/>
<feBlend mode="normal" in2="BackgroundImageFix" result="effect1_dropShadow_279_17738"/>
<feBlend mode="normal" in="SourceGraphic" in2="effect1_dropShadow_279_17738" result="shape"/>
</filter>
<linearGradient id="paint0_linear_279_17738" x1="38.0905" y1="37.4318" x2="79.9889" y2="59.3045" gradientUnits="userSpaceOnUse">
<stop stop-color="#EEC340"/>
<stop offset="0.34" stop-color="#FFFA8A"/>
<stop offset="0.585" stop-color="#DEAC17"/>
<stop offset="1" stop-color="#FFFF95"/>
</linearGradient>
<linearGradient id="paint1_linear_279_17738" x1="15.615" y1="8.27539" x2="53.9761" y2="47.5765" gradientUnits="userSpaceOnUse">
<stop stop-color="#EEC340"/>
<stop offset="0.34" stop-color="#FFFA8A"/>
<stop offset="0.585" stop-color="#DEAC17"/>
<stop offset="1" stop-color="#FFFF95"/>
</linearGradient>
<linearGradient id="paint2_linear_279_17738" x1="4.11121" y1="28.4929" x2="50.6324" y2="50.0339" gradientUnits="userSpaceOnUse">
<stop stop-color="#EEC340"/>
<stop offset="0.34" stop-color="#FFFA8A"/>
<stop offset="0.585" stop-color="#DEAC17"/>
<stop offset="1" stop-color="#FFFF95"/>
</linearGradient>
<linearGradient id="paint3_linear_279_17738" x1="161.595" y1="20.2909" x2="168.276" y2="58.893" gradientUnits="userSpaceOnUse">
<stop stop-color="#EEC340"/>
<stop offset="0.353857" stop-color="#FFFA8A"/>
<stop offset="0.369759" stop-color="#FFFBA4"/>
<stop offset="0.644569" stop-color="#DEAC17"/>
<stop offset="1" stop-color="#FFFF95"/>
</linearGradient>
<linearGradient id="paint4_linear_279_17738" x1="161.595" y1="20.2909" x2="168.276" y2="58.893" gradientUnits="userSpaceOnUse">
<stop stop-color="#EEC340"/>
<stop offset="0.353857" stop-color="#FFFA8A"/>
<stop offset="0.369759" stop-color="#FFFBA4"/>
<stop offset="0.644569" stop-color="#DEAC17"/>
<stop offset="1" stop-color="#FFFF95"/>
</linearGradient>
<linearGradient id="paint5_linear_279_17738" x1="161.595" y1="20.2909" x2="168.276" y2="58.893" gradientUnits="userSpaceOnUse">
<stop stop-color="#EEC340"/>
<stop offset="0.353857" stop-color="#FFFA8A"/>
<stop offset="0.369759" stop-color="#FFFBA4"/>
<stop offset="0.644569" stop-color="#DEAC17"/>
<stop offset="1" stop-color="#FFFF95"/>
</linearGradient>
<linearGradient id="paint6_linear_279_17738" x1="161.595" y1="20.2909" x2="168.276" y2="58.893" gradientUnits="userSpaceOnUse">
<stop stop-color="#EEC340"/>
<stop offset="0.353857" stop-color="#FFFA8A"/>
<stop offset="0.369759" stop-color="#FFFBA4"/>
<stop offset="0.644569" stop-color="#DEAC17"/>
<stop offset="1" stop-color="#FFFF95"/>
</linearGradient>
<linearGradient id="paint7_linear_279_17738" x1="161.595" y1="20.2907" x2="168.276" y2="58.8929" gradientUnits="userSpaceOnUse">
<stop stop-color="#EEC340"/>
<stop offset="0.353857" stop-color="#FFFA8A"/>
<stop offset="0.369759" stop-color="#FFFBA4"/>
<stop offset="0.644569" stop-color="#DEAC17"/>
<stop offset="1" stop-color="#FFFF95"/>
</linearGradient>
</defs>
</svg>
